<?xml version="1.0" ?>
<svg id="Layer_1"
style="enable-background:new 0 0 122.9 122.9;"
 version="1.1"
 viewBox="0 0 122.9 122.9"
 xml:space="preserve"
 xmlns="http://www.w3.org/2000/svg"
 xmlns:xlink="http://www.w3.org/1999/xlink">
 <style type="text/css">
	.st0{fill:none;stroke:#E50013;stroke-width:0.2398;stroke-miterlimit:22.9256;}
	.st1{fill:none;stroke:#000000;stroke-width:5.9998;stroke-linecap:round;stroke-linejoin:round;stroke-miterlimit:22.9256;}
	.st2{fill:none;stroke:#000000;stroke-width:5.9998;stroke-miterlimit:22.9256;}
</style>
<path d="M20.6,70.9h64.5l2.6-10.7H18.1L20.6,70.9z M11.2,37.6h81.9L97,21.5c0.7-2.8,1.4-3.6,4.7-3.6h11c1.7,0,3,1.3,3,3  c0,1.7-1.3,3-3,3h-10.1L90.7,73.3c-0.8,3.2-1.3,3.6-4.4,3.6H19.7c-3.6,0-3.9-0.5-4.7-3.9L7.6,42.1C6.8,38.9,7.9,37.6,11.2,37.6z   M71.8,85.6c-3.7,0-6.7,3-6.7,6.7c0,3.7,3,6.7,6.7,6.7c3.7,0,6.7-3,6.7-6.7C78.5,88.6,75.5,85.6,71.8,85.6z M71.8,79.6  c7,0,12.7,5.7,12.7,12.7c0,7-5.7,12.7-12.7,12.7c-7,0-12.7-5.7-12.7-12.7C59.1,85.3,64.8,79.6,71.8,79.6z M32.6,85.6  c-3.7,0-6.7,3-6.7,6.7s3,6.7,6.7,6.7c3.7,0,6.7-3,6.7-6.7C39.3,88.6,36.3,85.6,32.6,85.6z M32.6,79.6c7,0,12.7,5.7,12.7,12.7  c0,7-5.7,12.7-12.7,12.7s-12.7-5.7-12.7-12.7C19.9,85.3,25.6,79.6,32.6,79.6z M16.6,54.2h72.5l2.6-10.7H14L16.6,54.2z"/></svg>



<svg enable-background="new 0 0 30 30"
height="40"
viewBox="0 0 30 30"
width="40"
xmlns="http://www.w3.org/2000/svg">
<path d="m28.7 10.2c-2.5-3-7.6-4.8-13.7-4.8-6 0-11.2 1.8-13.7 4.8-1 1.2-1.4 2.6-1.1 4 .2 1.2 1 2.3 2 2.8.6.3 1.3.4 1.9.4.3 0 .7 0 1-.1-.2.6-.3 1.2-.4 1.9-.2 1.8.1 3.1 1 4.1 1 1.2 2.6 1.3 3.2 1.3h.3 11.7c1.3 0 2.5-.5 3.2-1.4 1-1.2 1.2-2.9 1.1-4-.1-.6-.2-1.3-.4-1.9.3.1.7.1 1.1.1.6 0 1.3-.1 1.9-.4 1-.5 1.8-1.6 2-2.8.2-1.4-.1-2.9-1.1-4zm-5.7 12c-.5.6-1.2.9-2.1.9h-11.8c-.1 0-1.5.1-2.3-.8-.5-.6-.7-1.6-.6-2.9.5-4 3.2-6.4 3.7-6.8 1.4-1.1 3.3-1.8 5.2-1.8s3.6.6 4.9 1.8c1.9 1.6 3.3 4.3 3.7 6.8.1.8 0 2-.7 2.8zm5.3-8.3c-.2.8-.6 1.5-1.3 1.8-1.1.6-2.6.1-3-.1-.7-1.6-1.8-3-3.1-4.1-1.6-1.4-3.7-2.1-5.9-2.1s-4.4.8-6.1 2.1c-.4.3-2.1 1.8-3.2 4.2-.5.2-1.8.6-2.8 0-.6-.3-1.1-1-1.3-1.8-.2-.9.1-1.9.8-2.7 2.3-2.7 7-4.3 12.6-4.3s10.3 1.6 12.5 4.3c.7.8 1 1.7.8 2.7zm-13.3-1.5c-2.2 0-4.1 1.6-4.1 3.5s1.8 3.5 4.1 3.5c2.2 0 4.1-1.6 4.1-3.5s-1.9-3.5-4.1-3.5zm0 5.5c-1.4 0-2.6-.9-2.6-2s1.1-2 2.6-2c1.4 0 2.6.9 2.6 2s-1.2 2-2.6 2z" fill="#ffa400"/>
</svg>