<svg enable-background="new 0 0 30 30"
height="40"
viewBox="0 0 30 30"
width="40"
xmlns="http://www.w3.org/2000/svg">
<!-- <path d="M20.6,70.9h64.5l2.6-10.7H18.1L20.6,70.9z M11.2,37.6h81.9L97,21.5c0.7-2.8,1.4-3.6,4.7-3.6h11c1.7,0,3,1.3,3,3  c0,1.7-1.3,3-3,3h-10.1L90.7,73.3c-0.8,3.2-1.3,3.6-4.4,3.6H19.7c-3.6,0-3.9-0.5-4.7-3.9L7.6,42.1C6.8,38.9,7.9,37.6,11.2,37.6z   M71.8,85.6c-3.7,0-6.7,3-6.7,6.7c0,3.7,3,6.7,6.7,6.7c3.7,0,6.7-3,6.7-6.7C78.5,88.6,75.5,85.6,71.8,85.6z M71.8,79.6  c7,0,12.7,5.7,12.7,12.7c0,7-5.7,12.7-12.7,12.7c-7,0-12.7-5.7-12.7-12.7C59.1,85.3,64.8,79.6,71.8,79.6z M32.6,85.6  c-3.7,0-6.7,3-6.7,6.7s3,6.7,6.7,6.7c3.7,0,6.7-3,6.7-6.7C39.3,88.6,36.3,85.6,32.6,85.6z M32.6,79.6c7,0,12.7,5.7,12.7,12.7  c0,7-5.7,12.7-12.7,12.7s-12.7-5.7-12.7-12.7C19.9,85.3,25.6,79.6,32.6,79.6z M16.6,54.2h72.5l2.6-10.7H14L16.6,54.2z"/> -->
<path d="m28.7 10.2c-2.5-3-7.6-4.8-13.7-4.8-6 0-11.2 1.8-13.7 4.8-1 1.2-1.4 2.6-1.1 4 .2 1.2 1 2.3 2 2.8.6.3 1.3.4 1.9.4.3 0 .7 0 1-.1-.2.6-.3 1.2-.4 1.9-.2 1.8.1 3.1 1 4.1 1 1.2 2.6 1.3 3.2 1.3h.3 11.7c1.3 0 2.5-.5 3.2-1.4 1-1.2 1.2-2.9 1.1-4-.1-.6-.2-1.3-.4-1.9.3.1.7.1 1.1.1.6 0 1.3-.1 1.9-.4 1-.5 1.8-1.6 2-2.8.2-1.4-.1-2.9-1.1-4zm-5.7 12c-.5.6-1.2.9-2.1.9h-11.8c-.1 0-1.5.1-2.3-.8-.5-.6-.7-1.6-.6-2.9.5-4 3.2-6.4 3.7-6.8 1.4-1.1 3.3-1.8 5.2-1.8s3.6.6 4.9 1.8c1.9 1.6 3.3 4.3 3.7 6.8.1.8 0 2-.7 2.8zm5.3-8.3c-.2.8-.6 1.5-1.3 1.8-1.1.6-2.6.1-3-.1-.7-1.6-1.8-3-3.1-4.1-1.6-1.4-3.7-2.1-5.9-2.1s-4.4.8-6.1 2.1c-.4.3-2.1 1.8-3.2 4.2-.5.2-1.8.6-2.8 0-.6-.3-1.1-1-1.3-1.8-.2-.9.1-1.9.8-2.7 2.3-2.7 7-4.3 12.6-4.3s10.3 1.6 12.5 4.3c.7.8 1 1.7.8 2.7zm-13.3-1.5c-2.2 0-4.1 1.6-4.1 3.5s1.8 3.5 4.1 3.5c2.2 0 4.1-1.6 4.1-3.5s-1.9-3.5-4.1-3.5zm0 5.5c-1.4 0-2.6-.9-2.6-2s1.1-2 2.6-2c1.4 0 2.6.9 2.6 2s-1.2 2-2.6 2z" fill="#ffa400"/>
<!-- <path d="m213.4 143c24.2 3.3 48.4 6.7 72.6 10 9.5 1.3 19.1 2.6 28.6 4m17 2c.3 0 .7.1 1 .1m17.4 2.8c7 1 14 1.9 21 2.9 18.7 2.6 37.4 5.1 56 7.7 6 .8 9.7 5.1 9.7 11.2 0 30 .2 60-.1 90.1-.2 24.6-19.5 43.8-44.2 43.8-39.7.1-79.3.1-119 .1m-27.8-.1c-22.3 0-44.7 0-67 0-7.2 0-14.1-1.6-20.5-4.8-.6-.3-1.4-.5-2.2-.9 0 10.9-.7 21.5.2 32 .9 10.9 10 18.6 21.1 19.2 1.8.1 3.5.1 5.3.1h83.1m16 .1h1.1m16.4 0h81c12.2 0 22.9 3.9 30.9 11m10.8 14.8c.5 1.2 1 2.4 1.5 3.6 9 25.1-7.3 52.8-33.7 57.2-.7.1-1.4.5-2.1.7-3.5 0-7.1 0-10.6 0-.7-.2-1.4-.6-2.1-.7-26.3-4.6-42.4-31.6-33.7-56.8.9-2.6 2-5.1 3-7.7-32.1 0-64 0-96.2 0 .5 1.1.8 1.7 1.1 2.4 10.9 22.6 1.2 49.2-21.8 59.1-3.7 1.6-7.6 2.5-11.4 3.7-3.8 0-7.6 0-11.4 0-.7-.2-1.4-.6-2.1-.7-23.5-4.2-39.3-26.5-35.1-50.1.9-5.2 3-10.1 4.7-15.3-1-.2-2.5-.6-4-.9-7-1.7-13.3-4.9-18.6-9.7-4-3.6-7.2-7.6-9.6-12m-5.6-21.2c0-.7 0-1.5 0-2.2.1-42.9.1-85.9.1-128.8m-.1-18.6c0-27.5 0-55 .1-82.6 0-3.3-1-4.8-4.1-6.1-12.9-5.3-25.7-10.8-38.6-16.2m-11.8-5.3c-1.7-1.2-3.1-2.8-3.9-5.1-2.1-5.9.4-10.7 7.6-14.4h5.3c13.6 5.8 27.1 11.6 40.7 17.4 5.6 2.4 11.2 4.7 16.8 7 7.9 3.3 9.4 5.6 9.4 14v30.8 4.3c11.1 1.5 22.1 3.1 32.9 4.6" stroke-linecap="round" stroke-linejoin="round"/><path d="m382.1 385c-12 .1-22.1 10.2-21.9 22.1s10 21.6 21.9 21.7c12.1.1 22-9.8 22-21.9.1-12.1-9.8-21.9-22-21.9z"/><path d="m210 428.8c12.2-.1 21.9-9.9 21.8-22.1s-10-21.9-22.1-21.7c-12 .2-21.6 9.9-21.7 21.9 0 12.1 9.9 22 22 21.9z"/> -->
</svg>